HIERARCHY
ROOT ui
{
	 OFFSET 0 0 0
	 CHANNELS 3 XPosition YPosition Z Position
	 EndSite
	 {
	 OFFSET 0 -1 0
	 }
}
ROOT li
{
	 OFFSET 0 0 0
	 CHANNELS 3 XPosition YPosition Z Position
	 EndSite
	 {
	 OFFSET 0 -1 0
	 }
}
ROOT ul
{
	 OFFSET 0 0 0
	 CHANNELS 3 XPosition YPosition Z Position
	 EndSite
	 {
	 OFFSET 0 -1 0
	 }
}
ROOT ll
{
	 OFFSET 0 0 0
	 CHANNELS 3 XPosition YPosition Z Position
	 EndSite
	 {
	 OFFSET 0 -1 0
	 }
}
ROOT tt
{
	 OFFSET 0 0 0
	 CHANNELS 3 XPosition YPosition Z Position
	 EndSite
	 {
	 OFFSET 0 -1 0
	 }
}
ROOT tb
{
	 OFFSET 0 0 0
	 CHANNELS 3 XPosition YPosition Z Position
	 EndSite
	 {
	 OFFSET 0 -1 0
	 }
}
ROOT td
{
	 OFFSET 0 0 0
	 CHANNELS 3 XPosition YPosition Z Position
	 EndSite
	 {
	 OFFSET 0 -1 0
	 }
}
ROOT v
{
	 OFFSET 0 0 0
	 CHANNELS 3 XPosition YPosition Z Position
	 EndSite
	 {
	 OFFSET 0 -1 0
	 }
}
ROOT bn
{
	 OFFSET 0 0 0
	 CHANNELS 3 XPosition YPosition Z Position
	 EndSite
	 {
	 OFFSET 0 -1 0
	 }
}
MOTION
Frames: 10
Frame Time: 0.002
0.01754678726196289	0.009056994438171387	0		0.6791709594726563	-2.83620556640625	0		-0.9364215087890625	0.44792880249023437	0		0.007991218090057373	-3.49900537109375	0		1.90202294921875	-1.6725035400390624	0		3.217012451171875	-0.8176699829101562	0		4.28412158203125	-0.05654005813598633	0		5.9278955078125	0.5354819946289062	0		-0.4222083435058594	5.8563896484375	0		
0.009552016258239746	0.002617927074432373	0		0.7129581909179687	-2.841092529296875	0		-0.870355224609375	0.44387554931640627	0		-0.012208402633666992	-3.496331787109375	0		1.897926513671875	-1.6751358642578125	0		3.218724365234375	-0.8484657592773438	0		4.28707421875	-0.06843415832519531	0		5.915205078125	0.559980224609375	0		-0.29044552612304686	5.87868408203125	0		
0.004591338157653809	1.9437600672245024E-4	0		0.6588241577148437	-2.836113037109375	0		-0.9072485961914063	0.4448289489746094	0		0.01349442195892334	-3.503046142578125	0		1.9068038330078125	-1.67985205078125	0		3.22380419921875	-0.8392570190429688	0		4.29599365234375	-0.08335292053222657	0		5.90800390625	0.5290443725585937	0		-0.31907589721679686	5.858513671875	0		
0.003655627965927124	7.733250260353088E-4	0		0.7154486694335938	-2.85614306640625	0		-0.9081456909179687	0.44548712158203124	0		-0.008840103149414063	-3.512267333984375	0		1.895684326171875	-1.6833427734375	0		3.247584716796875	-0.8611951904296875	0		4.3049072265625	-0.09824155426025391	0		5.90733984375	0.52915087890625	0		-0.4244977416992187	5.8601220703125	0		
0.0027148659229278564	0.0013891760110855103	0		0.6752457885742188	-2.85621533203125	0		-0.945045166015625	0.44653057861328127	0		0.03175052261352539	-3.5280537109375	0		1.897632080078125	-1.6789244384765625	0		3.221780029296875	-0.8386284790039062	0		4.30395751953125	-0.09800855255126953	0		5.9066728515625	0.5292994995117187	0		-0.4871835632324219	5.8333740234375	0		
0.008833525657653808	0.008970063209533691	0		0.724974853515625	-2.862122802734375	0		-0.8739569091796875	0.44656695556640624	0		-0.009344358444213868	-3.509019287109375	0		1.91845068359375	-1.6866617431640625	0		3.246432373046875	-0.8715245361328126	0		4.3189208984375	-0.10590756225585937	0		5.89945703125	0.4984938659667969	0		-0.424349853515625	5.85945458984375	0		
-0.07618102264404297	0.004471868991851807	0		0.7217263793945312	-2.863492431640625	0		-0.9108739013671875	0.44768045043945315	0		0.04623577117919922	-3.5218984375	0		1.9173319091796874	-1.6861632080078126	0		3.263418701171875	-0.8683272094726563	0		4.32187158203125	-0.11367298126220703	0		5.905193359375	0.4985501403808594	0		-0.4539557800292969	5.8404580078125	0		
0.009744527816772462	-0.00568015193939209	0		0.7174314575195313	-2.867829833984375	0		-0.8848831787109375	0.44020245361328125	0		0.01294862174987793	-3.51888427734375	0		1.918238525390625	-1.681664794921875	0		3.256275146484375	-0.876877685546875	0		4.32883935546875	-0.11846358489990234	0		5.8944619140625	0.48517938232421876	0		-0.4543685607910156	5.84120361328125	0		
-0.001141666054725647	0.004137610912322998	0		0.6891892700195312	-2.865909912109375	0		-0.8898565673828125	0.43704736328125	0		0.039560699462890626	-3.525446044921875	0		1.9250093994140625	-1.690210693359375	0		3.265173583984375	-0.8805733642578125	0		4.32670166015625	-0.13315238952636718	0		5.89085107421875	0.46992962646484376	0		-0.4255911560058594	5.86067529296875	0		
0.004756492137908935	-0.008202106475830077	0		0.6718822631835938	-2.87108447265625	0		-0.9118344116210938	0.4330757751464844	0		-0.00975784683227539	-3.52523486328125	0		1.90095751953125	-1.6814344482421875	0		3.28590478515625	-0.90137939453125	0		4.3346875	-0.1359305419921875	0		5.89016064453125	0.4702019348144531	0		-0.4429649353027344	5.8646181640625	0		
